<?xml version="1.0" encoding="utf-8"?>
<!-- Generator: Adobe Illustrator 16.0.0, SVG Export Plug-In . SVG Version: 6.00 Build 0)  -->
<!DOCTYPE svg PUBLIC "-//W3C//DTD SVG 1.1//EN" "http://www.w3.org/Graphics/SVG/1.1/DTD/svg11.dtd">
<svg version="1.1" id="Layer_1" xmlns="http://www.w3.org/2000/svg" xmlns:xlink="http://www.w3.org/1999/xlink" x="0px" y="0px"
	 width="250px" height="250px" viewBox="0 0 250 250" enable-background="new 0 0 250 250" xml:space="preserve">
<g>
	<g>
		<g id="polygon7_2_">
			<polygon fill="#590E17" points="237.716,79.71 200.066,33.004 71.625,33 32.292,80.087 32.292,80.087 109.505,222.187 
				131.634,222.187 			"/>
		</g>
	</g>
</g>
<g>
	<g>
		<g id="polygon7_1_">
			<polygon fill="#F4E200" points="17.71,80.411 52.301,39 175.067,39.004 207.999,79.856 109.659,211.934 			"/>
			<path fill="#ED1C24" d="M55.107,45l117.09,0.004l28.213,34.998l-90.598,121.68L25.258,80.735L55.107,45 M49.495,33L10.163,80.087
				l99.342,142.099L215.587,79.71l-37.65-46.706L49.495,33L49.495,33z"/>
		</g>
	</g>
</g>
<path fill="#EFEFEF" d="M204.293,175.461l-9.905,19.338l-42.771-22.311c0,0-19.158,20.313-43.164,12.93
	c-24.004-7.381-30.277-26.237-30.277-26.237l3.502-7.796l30.544,16.319l25.003-15.731l-1.131-30.176l-28.937-14.425l3.084-7.188
	c0,0,32.448-13.327,51.058,29.212c0,0,4.029,15.35,1.143,22.811L204.293,175.461z M209.779,178.48l6.844,3.527l-10.289,19.582
	l-7.243-3.604L209.779,178.48z"/>
<path fill="#BCBCBC" d="M212.322,179.586l4.301,2.422l-10.289,19.582l-7.243-3.604l3.419-6.581l3.077,1.24L212.322,179.586z
	 M199.674,172.898l4.619,2.563l-9.905,19.338l-42.771-22.311c0,0-17.08,17.381-36.402,14.32
	c-19.298-3.048-32.293-15.762-37.043-27.631l1.614-3.596c0,0,17.872,27.059,45.519,20.529c17.586-4.907,25.2-13.223,25.2-13.223
	l42.542,22.789L199.674,172.898L199.674,172.898z M110.248,100.17l25.25,12.944l0.597,8.664l-28.931-14.421L110.248,100.17z"/>
<path fill="#EFEFEF" d="M30.22,45.015L19.773,64.062L62.224,86.95c0,0-6.055,27.252,13.533,42.982
	c19.592,15.734,38.707,10.343,38.707,10.343l4.484-7.273l-30.643-16.123l-1.017-29.516l25.625-16.007L141.09,87.22l4.22-6.592
	c0,0-7.168-34.334-52.825-25.883c0,0-14.955,5.28-19.519,11.845L30.22,45.015z M24.641,42.173l-6.756-3.691L7.452,57.982l7.046,3.98
	L24.641,42.173z"/>
<path fill="#BCBCBC" d="M22.309,40.684l-4.424-2.202L7.452,57.982l7.046,3.98l3.539-6.522l-2.766-1.86L22.309,40.684z
	 M34.943,47.411l-4.723-2.396L19.773,64.062L62.224,86.95c0,0-4.792,23.889,8.575,38.168c13.361,14.257,31.161,17.886,43.664,15.157
	l2.074-3.348c0,0-32.437,0.384-42.546-26.171c-5.802-17.309-3.175-28.281-3.175-28.281L28.072,60.049L34.943,47.411z
	 M145.305,80.633l-24.866-13.639l-7.522,4.366l28.177,15.864L145.305,80.633z"/>
</svg>
